PontanoFF.ufo
<glyph name="exclam" format="1">
  <advance width="428"/>
  <unicode hex="0021"/>
  <outline>
    <contour>
      <point x="191" y="325" type="line"/>
      <point x="136" y="1464" type="line"/>
      <point x="309" y="1464" type="line"/>
      <point x="250" y="325" type="line"/>
    </contour>
    <contour>
      <point x="148" y="177" type="line"/>
      <point x="292" y="177" type="line"/>
      <point x="292" y="0" type="line"/>
      <point x="148" y="0" type="line"/>
    </contour>
  </outline>
</glyph>
<glyph name="percent" format="1">
  <advance width="1677"/>
  <unicode hex="0025"/>
  <outline>
    <contour>
      <point x="1309" y="93" type="curve" smooth="yes"/>
      <point x="1441" y="93"/>
      <point x="1507" y="212"/>
      <point x="1507" y="348" type="curve" smooth="yes"/>
      <point x="1507" y="487"/>
      <point x="1441" y="604"/>
      <point x="1309" y="604" type="curve" smooth="yes"/>
      <point x="1177" y="604"/>
      <point x="1112" y="484"/>
      <point x="1112" y="348" type="curve" smooth="yes"/>
      <point x="1112" y="212"/>
      <point x="1177" y="93"/>
    </contour>
    <contour>
      <point x="1309" y="0" type="curve" smooth="yes"/>
      <point x="1106" y="0"/>
      <point x="1002" y="175"/>
      <point x="1002" y="348" type="curve" smooth="yes"/>
      <point x="1002" y="521"/>
      <point x="1106" y="696"/>
      <point x="1309" y="696" type="curve" smooth="yes"/>
      <point x="1512" y="696"/>
      <point x="1616" y="521"/>
      <point x="1616" y="348" type="curve" smooth="yes"/>
      <point x="1616" y="175"/>
      <point x="1512" y="0"/>
    </contour>
    <contour>
      <point x="357" y="863" type="curve" smooth="yes"/>
      <point x="489" y="863"/>
      <point x="555" y="982"/>
      <point x="555" y="1118" type="curve" smooth="yes"/>
      <point x="555" y="1257"/>
      <point x="489" y="1374"/>
      <point x="357" y="1374" type="curve" smooth="yes"/>
      <point x="225" y="1374"/>
      <point x="160" y="1254"/>
      <point x="160" y="1118" type="curve" smooth="yes"/>
      <point x="160" y="982"/>
      <point x="225" y="863"/>
    </contour>
    <contour>
      <point x="357" y="770" type="curve" smooth="yes"/>
      <point x="154" y="770"/>
      <point x="50" y="945"/>
      <point x="50" y="1118" type="curve" smooth="yes"/>
      <point x="50" y="1291"/>
      <point x="154" y="1466"/>
      <point x="357" y="1466" type="curve" smooth="yes"/>
      <point x="560" y="1466"/>
      <point x="664" y="1291"/>
      <point x="664" y="1118" type="curve" smooth="yes"/>
      <point x="664" y="945"/>
      <point x="560" y="770"/>
    </contour>
    <contour>
      <point x="268" y="-14" type="line"/>
      <point x="190" y="52" type="line"/>
      <point x="1426" y="1481" type="line"/>
      <point x="1503" y="1415" type="line"/>
    </contour>
  </outline>
</glyph>
<glyph name="ampersand" format="1">
  <advance width="1430"/>
  <unicode hex="0026"/>
  <outline>
    <contour>
      <point x="565" y="786" type="line"/>
      <point x="309" y="656"/>
      <point x="244" y="548"/>
      <point x="244" y="415" type="curve" smooth="yes"/>
      <point x="244" y="254"/>
      <point x="350" y="93"/>
      <point x="603" y="93" type="curve" smooth="yes"/>
      <point x="771" y="93"/>
      <point x="905" y="168"/>
      <point x="1004" y="291" type="curve"/>
    </contour>
    <contour>
      <point x="675" y="839" type="curve"/>
      <point x="1073" y="395" type="line"/>
      <point x="1135" y="509"/>
      <point x="1174" y="648"/>
      <point x="1188" y="801" type="curve"/>
      <point x="1311" y="782" type="line"/>
      <point x="1290" y="577"/>
      <point x="1235" y="417"/>
      <point x="1160" y="297" type="curve"/>
      <point x="1371" y="61" type="line"/>
      <point x="1284" y="-24" type="line"/>
      <point x="1086" y="199" type="line"/>
      <point x="944" y="38"/>
      <point x="758" y="-25"/>
      <point x="582" y="-25" type="curve" smooth="yes"/>
      <point x="292" y="-25"/>
      <point x="98" y="169"/>
      <point x="98" y="409" type="curve" smooth="yes"/>
      <point x="98" y="603"/>
      <point x="207" y="744"/>
      <point x="491" y="869" type="curve"/>
      <point x="428" y="940" type="line" smooth="yes"/>
      <point x="354" y="1024"/>
      <point x="322" y="1112"/>
      <point x="325" y="1210" type="curve" smooth="yes"/>
      <point x="331" y="1392"/>
      <point x="495" y="1491"/>
      <point x="673" y="1491" type="curve" smooth="yes"/>
      <point x="861" y="1491"/>
      <point x="1010" y="1393"/>
      <point x="1010" y="1211" type="curve" smooth="yes"/>
      <point x="1010" y="1036"/>
      <point x="853" y="928"/>
    </contour>
    <contour>
      <point x="548" y="982" type="curve"/>
      <point x="606" y="918" type="line"/>
      <point x="826" y="1018"/>
      <point x="882" y="1123"/>
      <point x="882" y="1205" type="curve" smooth="yes"/>
      <point x="882" y="1315"/>
      <point x="782" y="1374"/>
      <point x="678" y="1374" type="curve" smooth="yes"/>
      <point x="569" y="1374"/>
      <point x="466" y="1314"/>
      <point x="460" y="1210" type="curve" smooth="yes"/>
      <point x="456" y="1141"/>
      <point x="479" y="1060"/>
    </contour>
  </outline>
</glyph>
<glyph name="quotesingle" format="1">
  <advance width="280"/>
  <unicode hex="0027"/>
  <outline>
    <contour>
      <point x="172" y="1000" type="line"/>
      <point x="123" y="1000" type="line"/>
      <point x="81" y="1464" type="line"/>
      <point x="213" y="1464" type="line"/>
    </contour>
  </outline>
</glyph>
<glyph name="parenleft" format="1">
  <advance width="602"/>
  <unicode hex="0028"/>
  <outline>
    <contour>
      <point x="34" y="703" type="curve" smooth="yes"/>
      <point x="34" y="1242"/>
      <point x="232" y="1518"/>
      <point x="523" y="1587" type="curve"/>
      <point x="552" y="1502" type="line"/>
      <point x="282" y="1426"/>
      <point x="184" y="1117"/>
      <point x="184" y="703" type="curve" smooth="yes"/>
      <point x="184" y="289"/>
      <point x="282" y="-20"/>
      <point x="552" y="-96" type="curve"/>
      <point x="523" y="-181" type="line"/>
      <point x="232" y="-112"/>
      <point x="34" y="164"/>
    </contour>
  </outline>
</glyph>
<glyph name="two" format="1">
  <advance width="1246"/>
  <unicode hex="0032"/>
  <outline>
    <contour>
      <point x="236" y="1089" type="curve"/>
      <point x="107" y="1141" type="line"/>
      <point x="219" y="1387"/>
      <point x="388" y="1491"/>
      <point x="613" y="1491" type="curve" smooth="yes"/>
      <point x="860" y="1491"/>
      <point x="1071" y="1362"/>
      <point x="1071" y="1060" type="curve" smooth="yes"/>
      <point x="1071" y="615"/>
      <point x="473" y="458"/>
      <point x="311" y="112" type="curve"/>
      <point x="1050" y="112" type="line"/>
      <point x="1050" y="0" type="line"/>
      <point x="151" y="0" type="line"/>
      <point x="167" y="481"/>
      <point x="911" y="627"/>
      <point x="911" y="1062" type="curve" smooth="yes"/>
      <point x="911" y="1265"/>
      <point x="784" y="1374"/>
      <point x="625" y="1374" type="curve" smooth="yes"/>
      <point x="448" y="1374"/>
      <point x="319" y="1275"/>
    </contour>
  </outline>
</glyph>
<glyph name="three" format="1">
  <advance width="1092"/>
  <unicode hex="0033"/>
  <outline>
    <contour>
      <point x="926" y="1152" type="curve" smooth="yes"/>
      <point x="926" y="1012"/>
      <point x="852" y="863"/>
      <point x="667" y="815" type="curve"/>
      <point x="906" y="766"/>
      <point x="1000" y="581"/>
      <point x="997" y="403" type="curve" smooth="yes"/>
      <point x="993" y="190"/>
      <point x="844" y="-24"/>
      <point x="545" y="-25" type="curve" smooth="yes"/>
      <point x="351" y="-26"/>
      <point x="150" y="68"/>
      <point x="89" y="316" type="curve"/>
      <point x="213" y="358" type="line"/>
      <point x="268" y="184"/>
      <point x="377" y="93"/>
      <point x="533" y="93" type="curve" smooth="yes"/>
      <point x="745" y="93"/>
      <point x="846" y="239"/>
      <point x="848" y="396" type="curve" smooth="yes"/>
      <point x="851" y="655"/>
      <point x="695" y="751"/>
      <point x="441" y="751" type="curve"/>
      <point x="441" y="864" type="line"/>
      <point x="715" y="864"/>
      <point x="783" y="1006"/>
      <point x="783" y="1140" type="curve" smooth="yes"/>
      <point x="783" y="1257"/>
      <point x="708" y="1374"/>
      <point x="542" y="1374" type="curve" smooth="yes"/>
      <point x="430" y="1374"/>
      <point x="320" y="1333"/>
      <point x="229" y="1192" type="curve"/>
      <point x="123" y="1256" type="line"/>
      <point x="223" y="1412"/>
      <point x="365" y="1491"/>
      <point x="535" y="1491" type="curve" smooth="yes"/>
      <point x="781" y="1491"/>
      <point x="926" y="1351"/>
    </contour>
  </outline>
</glyph>
<glyph name="five" format="1">
  <advance width="1163"/>
  <unicode hex="0035"/>
  <outline>
    <contour>
      <point x="608" y="928" type="curve" smooth="yes"/>
      <point x="930" y="928"/>
      <point x="1072" y="703"/>
      <point x="1072" y="461" type="curve" smooth="yes"/>
      <point x="1072" y="181"/>
      <point x="892" y="-24"/>
      <point x="583" y="-24" type="curve" smooth="yes"/>
      <point x="366" y="-24"/>
      <point x="190" y="76"/>
      <point x="99" y="309" type="curve"/>
      <point x="223" y="359" type="line"/>
      <point x="296" y="192"/>
      <point x="428" y="93"/>
      <point x="575" y="93" type="curve" smooth="yes"/>
      <point x="803" y="93"/>
      <point x="923" y="264"/>
      <point x="923" y="453" type="curve" smooth="yes"/>
      <point x="923" y="634"/>
      <point x="817" y="808"/>
      <point x="602" y="808" type="curve" smooth="yes"/>
      <point x="485" y="808"/>
      <point x="374" y="768"/>
      <point x="278" y="685" type="curve"/>
      <point x="185" y="744" type="line"/>
      <point x="281" y="1464" type="line"/>
      <point x="982" y="1464" type="line"/>
      <point x="982" y="1337" type="line"/>
      <point x="412" y="1337" type="line"/>
      <point x="343" y="855" type="line"/>
      <point x="433" y="910"/>
      <point x="540" y="928"/>
    </contour>
  </outline>
</glyph>
<glyph name="eight" format="1">
  <advance width="1160"/>
  <unicode hex="0038"/>
  <outline>
    <contour>
      <point x="501" y="716" type="curve"/>
      <point x="347" y="623"/>
      <point x="264" y="487"/>
      <point x="264" y="367" type="curve" smooth="yes"/>
      <point x="264" y="223"/>
      <point x="379" y="93"/>
      <point x="584" y="93" type="curve" smooth="yes"/>
      <point x="741" y="93"/>
      <point x="914" y="189"/>
      <point x="914" y="368" type="curve" smooth="yes"/>
      <point x="914" y="586"/>
      <point x="716" y="654"/>
    </contour>
    <contour>
      <point x="106" y="351" type="curve" smooth="yes"/>
      <point x="106" y="502"/>
      <point x="194" y="640"/>
      <point x="398" y="759" type="curve"/>
      <point x="285" y="812"/>
      <point x="127" y="925"/>
      <point x="127" y="1101" type="curve" smooth="yes"/>
      <point x="127" y="1379"/>
      <point x="356" y="1491"/>
      <point x="594" y="1491" type="curve" smooth="yes"/>
      <point x="839" y="1491"/>
      <point x="1049" y="1375"/>
      <point x="1049" y="1099" type="curve" smooth="yes"/>
      <point x="1049" y="903"/>
      <point x="857" y="783"/>
      <point x="768" y="751" type="curve"/>
      <point x="1023" y="628"/>
      <point x="1062" y="506"/>
      <point x="1062" y="365" type="curve" smooth="yes"/>
      <point x="1062" y="160"/>
      <point x="885" y="-25"/>
      <point x="569" y="-25" type="curve" smooth="yes"/>
      <point x="281" y="-25"/>
      <point x="106" y="154"/>
    </contour>
    <contour>
      <point x="659" y="792" type="curve"/>
      <point x="753" y="839"/>
      <point x="899" y="932"/>
      <point x="899" y="1101" type="curve" smooth="yes"/>
      <point x="899" y="1292"/>
      <point x="758" y="1374"/>
      <point x="594" y="1374" type="curve" smooth="yes"/>
      <point x="441" y="1374"/>
      <point x="278" y="1301"/>
      <point x="278" y="1104" type="curve" smooth="yes"/>
      <point x="278" y="914"/>
      <point x="454" y="857"/>
    </contour>
  </outline>
</glyph>
<glyph name="nine" format="1">
  <advance width="1202"/>
  <unicode hex="0039"/>
  <outline>
    <contour>
      <point x="923" y="646" type="curve"/>
      <point x="826" y="569"/>
      <point x="697" y="525"/>
      <point x="584" y="520" type="curve" smooth="yes"/>
      <point x="314" y="509"/>
      <point x="123" y="677"/>
      <point x="123" y="982" type="curve" smooth="yes"/>
      <point x="123" y="1232"/>
      <point x="281" y="1491"/>
      <point x="583" y="1491" type="curve" smooth="yes"/>
      <point x="926" y="1491"/>
      <point x="1082" y="1214"/>
      <point x="1082" y="766" type="curve" smooth="yes"/>
      <point x="1082" y="265"/>
      <point x="867" y="-25"/>
      <point x="565" y="-25" type="curve" smooth="yes"/>
      <point x="467" y="-25"/>
      <point x="339" y="6"/>
      <point x="243" y="70" type="curve"/>
      <point x="284" y="181" type="line"/>
      <point x="371" y="120"/>
      <point x="470" y="90"/>
      <point x="562" y="92" type="curve" smooth="yes"/>
      <point x="771" y="97"/>
      <point x="910" y="289"/>
    </contour>
    <contour>
      <point x="923" y="765" type="curve"/>
      <point x="923" y="807" type="line" smooth="yes"/>
      <point x="923" y="1097"/>
      <point x="860" y="1373"/>
      <point x="583" y="1373" type="curve" smooth="yes"/>
      <point x="395" y="1373"/>
      <point x="274" y="1229"/>
      <point x="274" y="986" type="curve" smooth="yes"/>
      <point x="274" y="744"/>
      <point x="372" y="624"/>
      <point x="597" y="632" type="curve" smooth="yes"/>
      <point x="709" y="636"/>
      <point x="824" y="687"/>
    </contour>
  </outline>
</glyph>
<glyph name="question" format="1">
  <advance width="1010"/>
  <unicode hex="003F"/>
  <outline>
    <contour>
      <point x="795" y="1089" type="curve" smooth="yes"/>
      <point x="795" y="1227"/>
      <point x="723" y="1374"/>
      <point x="488" y="1374" type="curve" smooth="yes"/>
      <point x="269" y="1374"/>
      <point x="164" y="1223"/>
      <point x="134" y="1177" type="curve"/>
      <point x="35" y="1250" type="line"/>
      <point x="154" y="1439"/>
      <point x="335" y="1491"/>
      <point x="497" y="1491" type="curve" smooth="yes"/>
      <point x="816" y="1491"/>
      <point x="941" y="1286"/>
      <point x="941" y="1094" type="curve" smooth="yes"/>
      <point x="941" y="805"/>
      <point x="749" y="754"/>
      <point x="491" y="357" type="curve"/>
      <point x="363" y="358" type="line"/>
      <point x="620" y="791"/>
      <point x="795" y="828"/>
    </contour>
    <contour>
      <point x="350" y="0" type="line"/>
      <point x="350" y="215" type="line"/>
      <point x="514" y="215" type="line"/>
      <point x="514" y="0" type="line"/>
    </contour>
  </outline>
</glyph>
<glyph name="at" format="1">
  <advance width="1704"/>
  <unicode hex="0040"/>
  <outline>
    <contour>
      <point x="1100" y="322" type="curve"/>
      <point x="1053" y="164"/>
      <point x="902" y="63"/>
      <point x="764" y="67" type="curve" smooth="yes"/>
      <point x="549" y="73"/>
      <point x="445" y="242"/>
      <point x="445" y="425" type="curve" smooth="yes"/>
      <point x="445" y="679"/>
      <point x="622" y="941"/>
      <point x="874" y="941" type="curve" smooth="yes"/>
      <point x="959" y="941"/>
      <point x="1045" y="911"/>
      <point x="1145" y="844" type="curve"/>
      <point x="1169" y="917" type="line"/>
      <point x="1268" y="917" type="line"/>
      <point x="1177" y="360" type="line" smooth="yes"/>
      <point x="1163" y="277"/>
      <point x="1198" y="194"/>
      <point x="1277" y="188" type="curve" smooth="yes"/>
      <point x="1373" y="181"/>
      <point x="1473" y="290"/>
      <point x="1473" y="608" type="curve" smooth="yes"/>
      <point x="1473" y="947"/>
      <point x="1189" y="1151"/>
      <point x="886" y="1151" type="curve" smooth="yes"/>
      <point x="488" y="1151"/>
      <point x="240" y="795"/>
      <point x="240" y="467" type="curve" smooth="yes"/>
      <point x="240" y="162"/>
      <point x="425" y="-121"/>
      <point x="839" y="-121" type="curve" smooth="yes"/>
      <point x="955" y="-121"/>
      <point x="1094" y="-95"/>
      <point x="1246" y="-26" type="curve"/>
      <point x="1288" y="-109" type="line"/>
      <point x="1123" y="-192"/>
      <point x="974" y="-223"/>
      <point x="842" y="-223" type="curve" smooth="yes"/>
      <point x="340" y="-223"/>
      <point x="114" y="117"/>
      <point x="114" y="476" type="curve" smooth="yes"/>
      <point x="114" y="855"/>
      <point x="393" y="1256"/>
      <point x="883" y="1256" type="curve" smooth="yes"/>
      <point x="1256" y="1256"/>
      <point x="1591" y="988"/>
      <point x="1591" y="596" type="curve" smooth="yes"/>
      <point x="1591" y="275"/>
      <point x="1435" y="81"/>
      <point x="1256" y="100" type="curve" smooth="yes"/>
      <point x="1200" y="106"/>
      <point x="1101" y="156"/>
    </contour>
    <contour>
      <point x="1123" y="763" type="line"/>
      <point x="1037" y="821"/>
      <point x="957" y="846"/>
      <point x="886" y="846" type="curve" smooth="yes"/>
      <point x="695" y="846"/>
      <point x="570" y="655"/>
      <point x="570" y="422" type="curve" smooth="yes"/>
      <point x="570" y="289"/>
      <point x="634" y="163"/>
      <point x="779" y="163" type="curve" smooth="yes"/>
      <point x="869" y="163"/>
      <point x="1032" y="219"/>
      <point x="1080" y="507" type="curve" smooth="yes"/>
    </contour>
  </outline>
</glyph>
<glyph name="A" format="1">
  <advance width="1240"/>
  <unicode hex="0041"/>
  <outline>
    <contour>
      <point x="617" y="1368" type="line"/>
      <point x="345" y="508" type="line"/>
      <point x="885" y="508" type="line"/>
    </contour>
    <contour>
      <point x="37" y="0" type="line"/>
      <point x="513" y="1464" type="line"/>
      <point x="725" y="1464" type="line"/>
      <point x="1203" y="0" type="line"/>
      <point x="1053" y="0" type="line"/>
      <point x="919" y="399" type="line"/>
      <point x="311" y="399" type="line"/>
      <point x="183" y="0" type="line"/>
    </contour>
  </outline>
</glyph>
<glyph name="B" format="1">
  <advance width="1298"/>
  <unicode hex="0042"/>
  <outline>
    <contour>
      <point x="294" y="112" type="line"/>
      <point x="608" y="112" type="line" smooth="yes"/>
      <point x="829" y="112"/>
      <point x="1069" y="126"/>
      <point x="1069" y="415" type="curve" smooth="yes"/>
      <point x="1069" y="694"/>
      <point x="889" y="730"/>
      <point x="589" y="730" type="curve" smooth="yes"/>
      <point x="294" y="730" type="line"/>
    </contour>
    <contour>
      <point x="294" y="837" type="line"/>
      <point x="561" y="837" type="line" smooth="yes"/>
      <point x="875" y="837"/>
      <point x="1031" y="851"/>
      <point x="1031" y="1100" type="curve" smooth="yes"/>
      <point x="1031" y="1343"/>
      <point x="829" y="1352"/>
      <point x="594" y="1352" type="curve" smooth="yes"/>
      <point x="294" y="1352" type="line"/>
    </contour>
    <contour>
      <point x="148" y="1464" type="line"/>
      <point x="587" y="1464" type="line" smooth="yes"/>
      <point x="889" y="1464"/>
      <point x="1176" y="1416"/>
      <point x="1170" y="1095" type="curve" smooth="yes"/>
      <point x="1167" y="925"/>
      <point x="1107" y="806"/>
      <point x="881" y="782" type="curve"/>
      <point x="1116" y="759"/>
      <point x="1214" y="627"/>
      <point x="1214" y="413" type="curve" smooth="yes"/>
      <point x="1214" y="85"/>
      <point x="1009" y="0"/>
      <point x="551" y="0" type="curve" smooth="yes"/>
      <point x="148" y="0" type="line"/>
    </contour>
  </outline>
</glyph>
<glyph name="E" format="1">
  <advance width="1202"/>
  <unicode hex="0045"/>
  <outline>
    <contour>
      <point x="294" y="1352" type="line"/>
      <point x="294" y="838" type="line"/>
      <point x="1010" y="838" type="line"/>
      <point x="1010" y="723" type="line"/>
      <point x="294" y="723" type="line"/>
      <point x="294" y="112" type="line"/>
      <point x="1128" y="112" type="line"/>
      <point x="1128" y="0" type="line"/>
      <point x="148" y="0" type="line"/>
      <point x="148" y="1464" type="line"/>
      <point x="1117" y="1464" type="line"/>
      <point x="1117" y="1352" type="line"/>
    </contour>
  </outline>
</glyph>
<glyph name="F" format="1">
  <advance width="1178"/>
  <unicode hex="0046"/>
  <outline>
    <contour>
      <point x="294" y="0" type="line"/>
      <point x="148" y="0" type="line"/>
      <point x="148" y="1464" type="line"/>
      <point x="1117" y="1464" type="line"/>
      <point x="1117" y="1352" type="line"/>
      <point x="294" y="1352" type="line"/>
      <point x="294" y="830" type="line"/>
      <point x="1009" y="830" type="line"/>
      <point x="1009" y="716" type="line"/>
      <point x="294" y="716" type="line"/>
    </contour>
  </outline>
</glyph>
<glyph name="H" format="1">
  <advance width="1457"/>
  <unicode hex="0048"/>
  <outline>
    <contour>
      <point x="294" y="0" type="line"/>
      <point x="148" y="0" type="line"/>
      <point x="148" y="1464" type="line"/>
      <point x="294" y="1464" type="line"/>
      <point x="294" y="836" type="line"/>
      <point x="1164" y="836" type="line"/>
      <point x="1164" y="1464" type="line"/>
      <point x="1310" y="1464" type="line"/>
      <point x="1310" y="0" type="line"/>
      <point x="1164" y="0" type="line"/>
      <point x="1164" y="720" type="line"/>
      <point x="294" y="720" type="line"/>
    </contour>
  </outline>
</glyph>
<glyph name="K" format="1">
  <advance width="1252"/>
  <unicode hex="004B"/>
  <outline>
    <contour>
      <point x="294" y="0" type="line"/>
      <point x="148" y="0" type="line"/>
      <point x="148" y="1464" type="line"/>
      <point x="294" y="1464" type="line"/>
      <point x="294" y="724" type="line"/>
      <point x="1003" y="1464" type="line"/>
      <point x="1180" y="1464" type="line"/>
      <point x="649" y="916" type="line"/>
      <point x="1244" y="0" type="line"/>
      <point x="1077" y="0" type="line"/>
      <point x="550" y="814" type="line"/>
      <point x="294" y="550" type="line"/>
    </contour>
  </outline>
</glyph>
<glyph name="P" format="1">
  <advance width="1248"/>
  <unicode hex="0050"/>
  <outline>
    <contour>
      <point x="294" y="0" type="line"/>
      <point x="148" y="0" type="line"/>
      <point x="148" y="1464" type="line"/>
      <point x="534" y="1464" type="line" smooth="yes"/>
      <point x="1010" y="1464"/>
      <point x="1186" y="1360"/>
      <point x="1186" y="1063" type="curve" smooth="yes"/>
      <point x="1186" y="724"/>
      <point x="987" y="635"/>
      <point x="475" y="635" type="curve" smooth="yes"/>
      <point x="294" y="635" type="line"/>
    </contour>
    <contour>
      <point x="294" y="748" type="line"/>
      <point x="531" y="748" type="line"/>
      <point x="894" y="749"/>
      <point x="1038" y="807"/>
      <point x="1038" y="1055" type="curve" smooth="yes"/>
      <point x="1038" y="1306"/>
      <point x="894" y="1352"/>
      <point x="511" y="1352" type="curve" smooth="yes"/>
      <point x="294" y="1352" type="line"/>
    </contour>
  </outline>
</glyph>
<glyph name="Q" format="1">
  <advance width="1434"/>
  <unicode hex="0051"/>
  <outline>
    <contour>
      <point x="719" y="1372" type="curve" smooth="yes"/>
      <point x="366" y="1372"/>
      <point x="264" y="1131"/>
      <point x="264" y="741" type="curve" smooth="yes"/>
      <point x="264" y="302"/>
      <point x="380" y="92"/>
      <point x="720" y="92" type="curve" smooth="yes"/>
      <point x="1060" y="92"/>
      <point x="1177" y="298"/>
      <point x="1177" y="740" type="curve" smooth="yes"/>
      <point x="1177" y="1131"/>
      <point x="1073" y="1372"/>
    </contour>
    <contour>
      <point x="719" y="1488" type="curve" smooth="yes"/>
      <point x="1099" y="1488"/>
      <point x="1331" y="1281"/>
      <point x="1331" y="741" type="curve" smooth="yes"/>
      <point x="1331" y="418"/>
      <point x="1254" y="210"/>
      <point x="1111" y="94" type="curve"/>
      <point x="1374" y="-263" type="line"/>
      <point x="1266" y="-345" type="line"/>
      <point x="1008" y="31" type="line"/>
      <point x="926" y="-6"/>
      <point x="829" y="-24"/>
      <point x="718" y="-24" type="curve" smooth="yes"/>
      <point x="335" y="-24"/>
      <point x="110" y="186"/>
      <point x="110" y="740" type="curve" smooth="yes"/>
      <point x="110" y="1282"/>
      <point x="340" y="1488"/>
    </contour>
  </outline>
</glyph>
<glyph name="T" format="1">
  <advance width="1119"/>
  <unicode hex="0054"/>
  <outline>
    <contour>
      <point x="9" y="1352" type="line"/>
      <point x="9" y="1464" type="line"/>
      <point x="1110" y="1464" type="line"/>
      <point x="1110" y="1352" type="line"/>
      <point x="639" y="1352" type="line"/>
      <point x="639" y="0" type="line"/>
      <point x="493" y="0" type="line"/>
      <point x="493" y="1352" type="line"/>
    </contour>
  </outline>
</glyph>
<glyph name="U" format="1">
  <advance width="1346"/>
  <unicode hex="0055"/>
  <outline>
    <contour>
      <point x="123" y="570" type="curve" smooth="yes"/>
      <point x="123" y="1464" type="line"/>
      <point x="269" y="1464" type="line"/>
      <point x="269" y="574" type="line" smooth="yes"/>
      <point x="269" y="273"/>
      <point x="348" y="92"/>
      <point x="676" y="92" type="curve" smooth="yes"/>
      <point x="1002" y="92"/>
      <point x="1077" y="279"/>
      <point x="1077" y="574" type="curve" smooth="yes"/>
      <point x="1077" y="1464" type="line"/>
      <point x="1223" y="1464" type="line"/>
      <point x="1223" y="577" type="line" smooth="yes"/>
      <point x="1223" y="157"/>
      <point x="1046" y="-24"/>
      <point x="670" y="-24" type="curve" smooth="yes"/>
      <point x="308" y="-24"/>
      <point x="123" y="149"/>
    </contour>
  </outline>
</glyph>
<glyph name="X" format="1">
  <advance width="1245"/>
  <unicode hex="0058"/>
  <outline>
    <contour>
      <point x="1239" y="0" type="line"/>
      <point x="1066" y="0" type="line"/>
      <point x="620" y="643" type="line"/>
      <point x="173" y="0" type="line"/>
      <point x="6" y="0" type="line"/>
      <point x="538" y="761" type="line"/>
      <point x="51" y="1464" type="line"/>
      <point x="226" y="1464" type="line"/>
      <point x="625" y="887" type="line"/>
      <point x="1029" y="1464" type="line"/>
      <point x="1195" y="1464" type="line"/>
      <point x="707" y="769" type="line"/>
    </contour>
  </outline>
</glyph>
<glyph name="Z" format="1">
  <advance width="1176"/>
  <unicode hex="005A"/>
  <outline>
    <contour>
      <point x="130" y="1354" type="line"/>
      <point x="130" y="1464" type="line"/>
      <point x="1132" y="1464" type="line"/>
      <point x="1132" y="1369" type="line"/>
      <point x="234" y="110" type="line"/>
      <point x="1139" y="110" type="line"/>
      <point x="1134" y="0" type="line"/>
      <point x="47" y="0" type="line"/>
      <point x="47" y="98" type="line"/>
      <point x="946" y="1354" type="line"/>
    </contour>
  </outline>
</glyph>
<glyph name="b" format="1">
  <advance width="1079"/>
  <unicode hex="0062"/>
  <outline>
    <contour>
      <point x="572" y="77" type="curve" smooth="yes"/>
      <point x="747" y="77"/>
      <point x="843" y="229"/>
      <point x="843" y="514" type="curve" smooth="yes"/>
      <point x="843" y="792"/>
      <point x="746" y="943"/>
      <point x="573" y="943" type="curve" smooth="yes"/>
      <point x="387" y="943"/>
      <point x="265" y="811"/>
      <point x="265" y="520" type="curve" smooth="yes"/>
      <point x="265" y="205"/>
      <point x="351" y="77"/>
    </contour>
    <contour>
      <point x="577" y="-24" type="curve" smooth="yes"/>
      <point x="404" y="-24"/>
      <point x="300" y="57"/>
      <point x="246" y="180" type="curve"/>
      <point x="238" y="-1" type="line"/>
      <point x="128" y="-1" type="line"/>
      <point x="128" y="1473" type="line"/>
      <point x="270" y="1473" type="line"/>
      <point x="270" y="864" type="line"/>
      <point x="336" y="978"/>
      <point x="444" y="1044"/>
      <point x="584" y="1044" type="curve" smooth="yes"/>
      <point x="829" y="1044"/>
      <point x="987" y="849"/>
      <point x="987" y="502" type="curve" smooth="yes"/>
      <point x="987" y="190"/>
      <point x="840" y="-24"/>
    </contour>
  </outline>
</glyph>
<glyph name="c" format="1">
  <advance width="982"/>
  <unicode hex="0063"/>
  <outline>
    <contour>
      <point x="528" y="-24" type="curve" smooth="yes"/>
      <point x="236" y="-24"/>
      <point x="92" y="197"/>
      <point x="92" y="509" type="curve" smooth="yes"/>
      <point x="92" y="817"/>
      <point x="231" y="1044"/>
      <point x="527" y="1044" type="curve" smooth="yes"/>
      <point x="681" y="1044"/>
      <point x="855" y="975"/>
      <point x="911" y="733" type="curve"/>
      <point x="794" y="704" type="line"/>
      <point x="752" y="865"/>
      <point x="661" y="942"/>
      <point x="531" y="942" type="curve" smooth="yes"/>
      <point x="319" y="942"/>
      <point x="237" y="767"/>
      <point x="237" y="512" type="curve" smooth="yes"/>
      <point x="237" y="255"/>
      <point x="323" y="78"/>
      <point x="531" y="78" type="curve" smooth="yes"/>
      <point x="664" y="78"/>
      <point x="756" y="158"/>
      <point x="798" y="315" type="curve"/>
      <point x="910" y="281" type="line"/>
      <point x="856" y="52"/>
      <point x="694" y="-24"/>
    </contour>
  </outline>
</glyph>
<glyph name="h" format="1">
  <advance width="1086"/>
  <unicode hex="0068"/>
  <outline>
    <contour>
      <point x="823" y="0" type="line"/>
      <point x="823" y="603" type="line" smooth="yes"/>
      <point x="823" y="812"/>
      <point x="780" y="942"/>
      <point x="603" y="942" type="curve" smooth="yes"/>
      <point x="358" y="942"/>
      <point x="278" y="767"/>
      <point x="270" y="538" type="curve"/>
      <point x="270" y="0" type="line"/>
      <point x="127" y="0" type="line"/>
      <point x="127" y="1474" type="line"/>
      <point x="269" y="1474" type="line"/>
      <point x="269" y="849" type="line"/>
      <point x="337" y="975"/>
      <point x="457" y="1044"/>
      <point x="623" y="1044" type="curve" smooth="yes"/>
      <point x="946" y="1044"/>
      <point x="965" y="790"/>
      <point x="965" y="584" type="curve" smooth="yes"/>
      <point x="965" y="0" type="line"/>
    </contour>
  </outline>
</glyph>
<glyph name="k" format="1">
  <advance width="1005"/>
  <unicode hex="006B"/>
  <outline>
    <contour>
      <point x="855" y="0" type="line"/>
      <point x="480" y="564" type="line"/>
      <point x="270" y="364" type="line"/>
      <point x="270" y="0" type="line"/>
      <point x="127" y="0" type="line"/>
      <point x="127" y="1474" type="line"/>
      <point x="269" y="1474" type="line"/>
      <point x="270" y="516" type="line"/>
      <point x="800" y="1023" type="line"/>
      <point x="962" y="1023" type="line"/>
      <point x="572" y="652" type="line"/>
      <point x="1015" y="0" type="line"/>
    </contour>
  </outline>
</glyph>
<glyph name="l" format="1">
  <advance width="418"/>
  <unicode hex="006C"/>
  <outline>
    <contour>
      <point x="133" y="0" type="line"/>
      <point x="133" y="1474" type="line"/>
      <point x="275" y="1474" type="line"/>
      <point x="275" y="0" type="line"/>
    </contour>
  </outline>
</glyph>
<glyph name="m" format="1">
  <advance width="1782"/>
  <unicode hex="006D"/>
  <outline>
    <contour>
      <point x="823" y="0" type="line"/>
      <point x="823" y="603" type="line" smooth="yes"/>
      <point x="823" y="812"/>
      <point x="780" y="943"/>
      <point x="603" y="943" type="curve" smooth="yes"/>
      <point x="360" y="943"/>
      <point x="276" y="764"/>
      <point x="269" y="532" type="curve"/>
      <point x="270" y="0" type="line"/>
      <point x="127" y="0" type="line"/>
      <point x="127" y="1023" type="line"/>
      <point x="269" y="1023" type="line"/>
      <point x="269" y="850" type="line"/>
      <point x="338" y="976"/>
      <point x="457" y="1044"/>
      <point x="623" y="1044" type="curve" smooth="yes"/>
      <point x="831" y="1044"/>
      <point x="913" y="939"/>
      <point x="945" y="809" type="curve"/>
      <point x="1009" y="962"/>
      <point x="1135" y="1044"/>
      <point x="1319" y="1044" type="curve" smooth="yes"/>
      <point x="1642" y="1044"/>
      <point x="1661" y="790"/>
      <point x="1661" y="584" type="curve" smooth="yes"/>
      <point x="1661" y="0" type="line"/>
      <point x="1519" y="0" type="line"/>
      <point x="1519" y="603" type="line" smooth="yes"/>
      <point x="1519" y="812"/>
      <point x="1476" y="943"/>
      <point x="1299" y="943" type="curve" smooth="yes"/>
      <point x="1043" y="943"/>
      <point x="965" y="742"/>
      <point x="965" y="494" type="curve" smooth="yes"/>
      <point x="965" y="0" type="line"/>
    </contour>
  </outline>
</glyph>
<glyph name="n" format="1">
  <advance width="1086"/>
  <unicode hex="006E"/>
  <outline>
    <contour>
      <point x="823" y="0" type="line"/>
      <point x="823" y="605" type="line" smooth="yes"/>
      <point x="823" y="816"/>
      <point x="778" y="943"/>
      <point x="601" y="943" type="curve" smooth="yes"/>
      <point x="368" y="943"/>
      <point x="281" y="780"/>
      <point x="269" y="564" type="curve"/>
      <point x="270" y="0" type="line"/>
      <point x="127" y="0" type="line"/>
      <point x="127" y="1023" type="line"/>
      <point x="269" y="1023" type="line"/>
      <point x="269" y="852" type="line"/>
      <point x="338" y="980"/>
      <point x="457" y="1044"/>
      <point x="623" y="1044" type="curve" smooth="yes"/>
      <point x="944" y="1044"/>
      <point x="965" y="787"/>
      <point x="965" y="584" type="curve" smooth="yes"/>
      <point x="965" y="0" type="line"/>
    </contour>
  </outline>
</glyph>
<glyph name="p" format="1">
  <advance width="1082"/>
  <unicode hex="0070"/>
  <outline>
    <contour>
      <point x="580" y="-24" type="curve" smooth="yes"/>
      <point x="426" y="-24"/>
      <point x="327" y="40"/>
      <point x="269" y="141" type="curve"/>
      <point x="269" y="-350" type="line"/>
      <point x="127" y="-350" type="line"/>
      <point x="127" y="1023" type="line"/>
      <point x="249" y="1023" type="line"/>
      <point x="264" y="850" type="line"/>
      <point x="327" y="973"/>
      <point x="435" y="1044"/>
      <point x="580" y="1044" type="curve" smooth="yes"/>
      <point x="828" y="1044"/>
      <point x="990" y="856"/>
      <point x="990" y="502" type="curve" smooth="yes"/>
      <point x="990" y="190"/>
      <point x="843" y="-24"/>
    </contour>
    <contour>
      <point x="268" y="490" type="line"/>
      <point x="273" y="197"/>
      <point x="361" y="77"/>
      <point x="575" y="77" type="curve" smooth="yes"/>
      <point x="750" y="77"/>
      <point x="846" y="229"/>
      <point x="846" y="514" type="curve" smooth="yes"/>
      <point x="846" y="791"/>
      <point x="749" y="943"/>
      <point x="572" y="943" type="curve" smooth="yes"/>
      <point x="391" y="943"/>
      <point x="274" y="818"/>
      <point x="268" y="542" type="curve"/>
    </contour>
  </outline>
</glyph>
<glyph name="q" format="1">
  <advance width="1082"/>
  <unicode hex="0071"/>
  <outline>
    <contour>
      <point x="507" y="77" type="curve" smooth="yes"/>
      <point x="721" y="77"/>
      <point x="809" y="197"/>
      <point x="814" y="490" type="curve"/>
      <point x="814" y="542" type="line"/>
      <point x="808" y="818"/>
      <point x="691" y="943"/>
      <point x="510" y="943" type="curve" smooth="yes"/>
      <point x="333" y="943"/>
      <point x="236" y="791"/>
      <point x="236" y="514" type="curve" smooth="yes"/>
      <point x="236" y="229"/>
      <point x="332" y="77"/>
    </contour>
    <contour>
      <point x="813" y="-350" type="line"/>
      <point x="813" y="141" type="line"/>
      <point x="755" y="40"/>
      <point x="656" y="-24"/>
      <point x="502" y="-24" type="curve" smooth="yes"/>
      <point x="239" y="-24"/>
      <point x="92" y="190"/>
      <point x="92" y="502" type="curve" smooth="yes"/>
      <point x="92" y="856"/>
      <point x="254" y="1044"/>
      <point x="502" y="1044" type="curve" smooth="yes"/>
      <point x="647" y="1044"/>
      <point x="755" y="973"/>
      <point x="818" y="850" type="curve"/>
      <point x="833" y="1023" type="line"/>
      <point x="955" y="1023" type="line"/>
      <point x="955" y="-350" type="line"/>
    </contour>
  </outline>
</glyph>
<glyph name="r" format="1">
  <advance width="626"/>
  <unicode hex="0072"/>
  <outline>
    <contour>
      <point x="127" y="0" type="line"/>
      <point x="127" y="1023" type="line"/>
      <point x="269" y="1023" type="line"/>
      <point x="269" y="832" type="line"/>
      <point x="335" y="967"/>
      <point x="442" y="1029"/>
      <point x="578" y="1029" type="curve"/>
      <point x="578" y="903" type="line"/>
      <point x="359" y="903"/>
      <point x="276" y="733"/>
      <point x="269" y="556" type="curve"/>
      <point x="270" y="0" type="line"/>
    </contour>
  </outline>
</glyph>
<glyph name="x" format="1">
  <advance width="966"/>
  <unicode hex="0078"/>
  <outline>
    <contour>
      <point x="32" y="1023" type="line"/>
      <point x="188" y="1023" type="line"/>
      <point x="486" y="616" type="line"/>
      <point x="773" y="1023" type="line"/>
      <point x="926" y="1023" type="line"/>
      <point x="559" y="517" type="line"/>
      <point x="938" y="0" type="line"/>
      <point x="782" y="0" type="line"/>
      <point x="479" y="414" type="line"/>
      <point x="184" y="0" type="line"/>
      <point x="31" y="0" type="line"/>
      <point x="405" y="515" type="line"/>
    </contour>
  </outline>
</glyph>
<glyph name="logicalnot" format="1">
  <advance width="1024"/>
  <unicode hex="00AC"/>
  <outline>
    <contour>
      <point x="803" y="335" type="line"/>
      <point x="803" y="670" type="line"/>
      <point x="135" y="670" type="line"/>
      <point x="135" y="756" type="line"/>
      <point x="889" y="756" type="line"/>
      <point x="889" y="335" type="line"/>
    </contour>
  </outline>
</glyph>
<glyph name="cedilla" format="1">
  <advance width="435"/>
  <unicode hex="00B8"/>
  <outline>
    <contour>
      <point x="150" y="-300" type="line"/>
      <point x="161" y="-302"/>
      <point x="171" y="-303"/>
      <point x="180" y="-303" type="curve" smooth="yes"/>
      <point x="249" y="-303"/>
      <point x="278" y="-249"/>
      <point x="278" y="-189" type="curve" smooth="yes"/>
      <point x="278" y="-132"/>
      <point x="252" y="-70"/>
      <point x="209" y="-46" type="curve"/>
      <point x="214" y="0" type="line"/>
      <point x="310" y="-11"/>
      <point x="373" y="-120"/>
      <point x="373" y="-219" type="curve" smooth="yes"/>
      <point x="373" y="-306"/>
      <point x="325" y="-386"/>
      <point x="209" y="-386" type="curve" smooth="yes"/>
      <point x="191" y="-386"/>
      <point x="171" y="-384"/>
      <point x="150" y="-380" type="curve"/>
    </contour>
  </outline>
</glyph>
<glyph name="uni00B9" format="1">
  <advance width="546"/>
  <unicode hex="00B9"/>
  <outline>
    <contour>
      <point x="262" y="769" type="line"/>
      <point x="262" y="1365" type="line"/>
      <point x="145" y="1307" type="line"/>
      <point x="124" y="1397" type="line"/>
      <point x="272" y="1464" type="line"/>
      <point x="375" y="1464" type="line"/>
      <point x="375" y="769" type="line"/>
    </contour>
  </outline>
</glyph>
<glyph name="AE" format="1">
  <advance width="2030"/>
  <unicode hex="00C6"/>
  <outline>
    <contour>
      <point x="431" y="508" type="line"/>
      <point x="974" y="508" type="line"/>
      <point x="974" y="1406" type="line"/>
    </contour>
    <contour>
      <point x="-36" y="0" type="line"/>
      <point x="870" y="1464" type="line"/>
      <point x="2005" y="1464" type="line"/>
      <point x="2005" y="1352" type="line"/>
      <point x="1118" y="1352" type="line"/>
      <point x="1118" y="838" type="line"/>
      <point x="1843" y="838" type="line"/>
      <point x="1843" y="800"/>
      <point x="1842" y="761"/>
      <point x="1842" y="723" type="curve"/>
      <point x="1118" y="723" type="line"/>
      <point x="1118" y="112" type="line"/>
      <point x="2015" y="112" type="line"/>
      <point x="2015" y="0" type="line"/>
      <point x="974" y="0" type="line"/>
      <point x="974" y="399" type="line"/>
      <point x="371" y="399" type="line"/>
      <point x="124" y="0" type="line"/>
    </contour>
  </outline>
</glyph>
<glyph name="multiply" format="1">
  <advance width="734"/>
  <unicode hex="00D7"/>
  <outline>
    <contour>
      <point x="534" y="193" type="line"/>
      <point x="367" y="359" type="line"/>
      <point x="200" y="193" type="line"/>
      <point x="110" y="283" type="line"/>
      <point x="276" y="450" type="line"/>
      <point x="110" y="617" type="line"/>
      <point x="200" y="707" type="line"/>
      <point x="367" y="541" type="line"/>
      <point x="534" y="707" type="line"/>
      <point x="624" y="617" type="line"/>
      <point x="458" y="450" type="line"/>
      <point x="624" y="283" type="line"/>
    </contour>
  </outline>
</glyph>
<glyph name="Oslash" format="1">
  <advance width="1497"/>
  <unicode hex="00D8"/>
  <outline>
    <component base="O"/>
    <contour>
      <point x="1210" y="1614" type="line"/>
      <point x="320" y="-204" type="line"/>
      <point x="235" y="-160" type="line"/>
      <point x="1126" y="1658" type="line"/>
    </contour>
  </outline>
</glyph>
<glyph name="germandbls" format="1">
  <advance width="1199"/>
  <unicode hex="00DF"/>
  <outline>
    <contour>
      <point x="276" y="0" type="line"/>
      <point x="130" y="0" type="line"/>
      <point x="130" y="1151" type="line" smooth="yes"/>
      <point x="130" y="1373"/>
      <point x="350" y="1492"/>
      <point x="568" y="1492" type="curve" smooth="yes"/>
      <point x="829" y="1492"/>
      <point x="940" y="1360"/>
      <point x="940" y="1203" type="curve" smooth="yes"/>
      <point x="940" y="949"/>
      <point x="587" y="890"/>
      <point x="585" y="823" type="curve" smooth="yes"/>
      <point x="580" y="685"/>
      <point x="1121" y="654"/>
      <point x="1121" y="336" type="curve" smooth="yes"/>
      <point x="1121" y="111"/>
      <point x="1022" y="0"/>
      <point x="481" y="0" type="curve" smooth="yes"/>
      <point x="441" y="0" type="line"/>
      <point x="441" y="117" type="line"/>
      <point x="895" y="117"/>
      <point x="970" y="206"/>
      <point x="975" y="334" type="curve" smooth="yes"/>
      <point x="984" y="572"/>
      <point x="436" y="586"/>
      <point x="441" y="816" type="curve" smooth="yes"/>
      <point x="445" y="1001"/>
      <point x="804" y="996"/>
      <point x="804" y="1209" type="curve" smooth="yes"/>
      <point x="804" y="1322"/>
      <point x="721" y="1388"/>
      <point x="565" y="1388" type="curve" smooth="yes"/>
      <point x="420" y="1388"/>
      <point x="276" y="1303"/>
      <point x="276" y="1140" type="curve" smooth="yes"/>
    </contour>
  </outline>
</glyph>
<glyph name="ae" format="1">
  <advance width="1667"/>
  <unicode hex="00E6"/>
  <outline>
    <contour>
      <point x="760" y="485" type="line"/>
      <point x="570" y="482" type="line"/>
      <point x="351" y="477"/>
      <point x="215" y="436"/>
      <point x="226" y="256" type="curve" smooth="yes"/>
      <point x="233" y="134"/>
      <point x="313" y="78"/>
      <point x="440" y="78" type="curve" smooth="yes"/>
      <point x="642" y="78"/>
      <point x="760" y="154"/>
      <point x="760" y="414" type="curve" smooth="yes"/>
    </contour>
    <contour>
      <point x="901" y="590" type="curve"/>
      <point x="1464" y="600" type="line"/>
      <point x="1454" y="832"/>
      <point x="1375" y="942"/>
      <point x="1196" y="942" type="curve" smooth="yes"/>
      <point x="1020" y="942"/>
      <point x="909" y="802"/>
    </contour>
    <contour>
      <point x="133" y="927" type="line"/>
      <point x="247" y="1006"/>
      <point x="366" y="1044"/>
      <point x="518" y="1044" type="curve" smooth="yes"/>
      <point x="695" y="1044"/>
      <point x="804" y="977"/>
      <point x="848" y="814" type="curve"/>
      <point x="911" y="969"/>
      <point x="1047" y="1044"/>
      <point x="1193" y="1044" type="curve" smooth="yes"/>
      <point x="1478" y="1044"/>
      <point x="1587" y="844"/>
      <point x="1587" y="572" type="curve" smooth="yes"/>
      <point x="1587" y="563"/>
      <point x="1586" y="523"/>
      <point x="1584" y="506" type="curve"/>
      <point x="900" y="494" type="line"/>
      <point x="906" y="250"/>
      <point x="989" y="78"/>
      <point x="1198" y="78" type="curve" smooth="yes"/>
      <point x="1374" y="78"/>
      <point x="1444" y="204"/>
      <point x="1474" y="276" type="curve"/>
      <point x="1570" y="234" type="line"/>
      <point x="1515" y="83"/>
      <point x="1379" y="-23"/>
      <point x="1195" y="-24" type="curve" smooth="yes"/>
      <point x="1053" y="-24"/>
      <point x="886" y="46"/>
      <point x="831" y="220" type="curve"/>
      <point x="777" y="49"/>
      <point x="635" y="-24"/>
      <point x="429" y="-24" type="curve" smooth="yes"/>
      <point x="241" y="-24"/>
      <point x="92" y="58"/>
      <point x="84" y="251" type="curve" smooth="yes"/>
      <point x="73" y="503"/>
      <point x="254" y="576"/>
      <point x="563" y="581" type="curve" smooth="yes"/>
      <point x="760" y="584" type="line"/>
      <point x="757" y="841"/>
      <point x="723" y="934"/>
      <point x="530" y="942" type="curve" smooth="yes"/>
      <point x="370" y="948"/>
      <point x="274" y="896"/>
      <point x="187" y="840" type="curve"/>
    </contour>
  </outline>
</glyph>
<glyph name="eth" format="1">
  <advance width="1053"/>
  <unicode hex="00F0"/>
  <outline>
    <contour>
      <point x="169" y="1338" type="curve"/>
      <point x="169" y="1432" type="line"/>
      <point x="381" y="1432"/>
      <point x="541" y="1377"/>
      <point x="658" y="1288" type="curve"/>
      <point x="867" y="1424" type="line"/>
      <point x="920" y="1349" type="line"/>
      <point x="729" y="1224" type="line"/>
      <point x="903" y="1044"/>
      <point x="959" y="775"/>
      <point x="959" y="529" type="curve" smooth="yes"/>
      <point x="959" y="213"/>
      <point x="835" y="-24"/>
      <point x="518" y="-24" type="curve" smooth="yes"/>
      <point x="231" y="-24"/>
      <point x="94" y="208"/>
      <point x="94" y="454" type="curve" smooth="yes"/>
      <point x="94" y="746"/>
      <point x="294" y="906"/>
      <point x="503" y="908" type="curve" smooth="yes"/>
      <point x="617" y="909"/>
      <point x="730" y="867"/>
      <point x="810" y="772" type="curve"/>
      <point x="794" y="895"/>
      <point x="742" y="1046"/>
      <point x="631" y="1161" type="curve"/>
      <point x="434" y="1032" type="line"/>
      <point x="381" y="1107" type="line"/>
      <point x="559" y="1223" type="line"/>
      <point x="464" y="1292"/>
      <point x="337" y="1338"/>
    </contour>
    <contour>
      <point x="523" y="798" type="curve" smooth="yes"/>
      <point x="366" y="798"/>
      <point x="236" y="670"/>
      <point x="236" y="441" type="curve" smooth="yes"/>
      <point x="236" y="216"/>
      <point x="360" y="85"/>
      <point x="525" y="85" type="curve" smooth="yes"/>
      <point x="736" y="85"/>
      <point x="823" y="262"/>
      <point x="823" y="511" type="curve" smooth="yes"/>
      <point x="823" y="535"/>
      <point x="822" y="624"/>
      <point x="816" y="650" type="curve"/>
      <point x="724" y="748"/>
      <point x="629" y="798"/>
    </contour>
  </outline>
</glyph>
<glyph name="hbar" format="1">
  <advance width="1117"/>
  <unicode hex="0127"/>
  <outline>
    <component base="h"/>
    <contour>
      <point x="0" y="1201" type="line"/>
      <point x="0" y="1287" type="line"/>
      <point x="520" y="1287" type="line"/>
      <point x="520" y="1201" type="line"/>
    </contour>
  </outline>
</glyph>
<glyph name="IJ" format="1">
  <advance width="1418"/>
  <unicode hex="0132"/>
  <outline>
    <contour>
      <point x="485" y="334" type="curve"/>
      <point x="615" y="369" type="line"/>
      <point x="653" y="198"/>
      <point x="719" y="93"/>
      <point x="881" y="93" type="curve"/>
      <point x="1121" y="95"/>
      <point x="1137" y="306"/>
      <point x="1137" y="541" type="curve" smooth="yes"/>
      <point x="1137" y="1464" type="line"/>
      <point x="1282" y="1464" type="line"/>
      <point x="1282" y="544" type="line" smooth="yes"/>
      <point x="1282" y="166"/>
      <point x="1182" y="-25"/>
      <point x="869" y="-25" type="curve" smooth="yes"/>
      <point x="643" y="-25"/>
      <point x="528" y="117"/>
    </contour>
    <contour>
      <point x="309" y="0" type="line"/>
      <point x="163" y="0" type="line"/>
      <point x="163" y="1464" type="line"/>
      <point x="309" y="1464" type="line"/>
    </contour>
  </outline>
</glyph>
<glyph name="Lslash" format="1">
  <advance width="1055"/>
  <unicode hex="0141"/>
  <outline>
    <component base="L"/>
    <contour>
      <point x="-21" y="642" type="line"/>
      <point x="-21" y="764" type="line"/>
      <point x="589" y="1024" type="line"/>
      <point x="589" y="902" type="line"/>
    </contour>
  </outline>
</glyph>
<glyph name="lslash" format="1">
  <advance width="421"/>
  <unicode hex="0142"/>
  <outline>
    <component base="l"/>
    <contour>
      <point x="-60" y="669" type="line"/>
      <point x="-60" y="787" type="line"/>
      <point x="457" y="1032" type="line"/>
      <point x="457" y="914" type="line"/>
    </contour>
  </outline>
</glyph>
<glyph name="Eng" format="1">
  <advance width="1491"/>
  <unicode hex="014A"/>
  <outline>
    <component base="N"/>
    <contour>
      <point x="1342" y="6" type="line" smooth="yes"/>
      <point x="1342" y="-306"/>
      <point x="1169" y="-439"/>
      <point x="952" y="-439" type="curve" smooth="yes"/>
      <point x="827" y="-439"/>
      <point x="688" y="-395"/>
      <point x="558" y="-316" type="curve"/>
      <point x="608" y="-223" type="line"/>
      <point x="715" y="-287"/>
      <point x="831" y="-329"/>
      <point x="933" y="-329" type="curve" smooth="yes"/>
      <point x="1083" y="-329"/>
      <point x="1200" y="-239"/>
      <point x="1200" y="2" type="curve" smooth="yes"/>
      <point x="1200" y="102" type="line"/>
      <point x="1342" y="102" type="line"/>
    </contour>
  </outline>
</glyph>
<glyph name="eng" format="1">
  <advance width="1086"/>
  <unicode hex="014B"/>
  <outline>
    <component base="n"/>
    <contour>
      <point x="965" y="40" type="line" smooth="yes"/>
      <point x="965" y="-225"/>
      <point x="821" y="-414"/>
      <point x="578" y="-414" type="curve" smooth="yes"/>
      <point x="465" y="-414"/>
      <point x="332" y="-374"/>
      <point x="181" y="-282" type="curve"/>
      <point x="231" y="-189" type="line"/>
      <point x="354" y="-263"/>
      <point x="465" y="-299"/>
      <point x="556" y="-299" type="curve" smooth="yes"/>
      <point x="722" y="-299"/>
      <point x="823" y="-181"/>
      <point x="823" y="36" type="curve" smooth="yes"/>
      <point x="823" y="102" type="line"/>
      <point x="965" y="102" type="line"/>
    </contour>
  </outline>
</glyph>
<glyph name="uni0237" format="1">
  <advance width="482"/>
  <unicode hex="0237"/>
  <outline>
    <contour>
      <point x="140" y="-325" type="curve" smooth="yes"/>
      <point x="69" y="-325"/>
      <point x="13" y="-306"/>
      <point x="-27" y="-284" type="curve"/>
      <point x="2" y="-177" type="line"/>
      <point x="29" y="-189"/>
      <point x="65" y="-207"/>
      <point x="118" y="-207" type="curve" smooth="yes"/>
      <point x="177" y="-207"/>
      <point x="214" y="-182"/>
      <point x="214" y="-91" type="curve" smooth="yes"/>
      <point x="214" y="1023" type="line"/>
      <point x="356" y="1023" type="line"/>
      <point x="356" y="-12" type="line" smooth="yes"/>
      <point x="356" y="-217"/>
      <point x="322" y="-325"/>
    </contour>
  </outline>
</glyph>
<glyph name="caron" format="1">
  <advance width="838"/>
  <unicode hex="02C7"/>
  <outline>
    <contour>
      <point x="337" y="1172" type="line"/>
      <point x="152" y="1492" type="line"/>
      <point x="249" y="1492" type="line"/>
      <point x="424" y="1239" type="line"/>
      <point x="600" y="1492" type="line"/>
      <point x="697" y="1492" type="line"/>
      <point x="512" y="1172" type="line"/>
    </contour>
  </outline>
</glyph>
<glyph name="dotaccent" format="1">
  <advance width="434"/>
  <unicode hex="02D9"/>
  <outline>
    <contour>
      <point x="135" y="758" type="line"/>
      <point x="299" y="758" type="line"/>
      <point x="299" y="543" type="line"/>
      <point x="135" y="543" type="line"/>
    </contour>
  </outline>
</glyph>
<glyph name="ogonek" format="1">
  <advance width="462"/>
  <unicode hex="02DB"/>
  <outline>
    <contour>
      <point x="315" y="0" type="line"/>
      <point x="281" y="-74"/>
      <point x="235" y="-161"/>
      <point x="235" y="-219" type="curve" smooth="yes"/>
      <point x="235" y="-268"/>
      <point x="263" y="-299"/>
      <point x="346" y="-280" type="curve"/>
      <point x="346" y="-361" type="line"/>
      <point x="188" y="-400"/>
      <point x="114" y="-321"/>
      <point x="117" y="-241" type="curve" smooth="yes"/>
      <point x="120" y="-166"/>
      <point x="179" y="-88"/>
      <point x="244" y="0" type="curve"/>
    </contour>
  </outline>
</glyph>
<glyph name="quoteleft" format="1">
  <advance width="330"/>
  <unicode hex="2018"/>
  <outline>
    <contour>
      <point x="145" y="1469" type="curve"/>
      <point x="145" y="1468"/>
      <point x="213" y="1431"/>
      <point x="214" y="1431" type="curve"/>
      <point x="157" y="1335"/>
      <point x="136" y="1298"/>
      <point x="136" y="1200" type="curve"/>
      <point x="230" y="1187" type="line"/>
      <point x="230" y="1057" type="line" smooth="yes"/>
      <point x="230" y="992" type="line"/>
      <point x="30" y="992" type="line"/>
      <point x="30" y="1089" type="line" smooth="yes"/>
      <point x="30" y="1103" type="line" smooth="yes"/>
      <point x="30" y="1243"/>
      <point x="32" y="1374"/>
    </contour>
  </outline>
</glyph>
<glyph name="Euro" format="1">
  <advance width="1275"/>
  <unicode hex="20AC"/>
  <outline>
    <component base="C"/>
    <contour>
      <point x="691" y="796" type="line"/>
      <point x="-43" y="796" type="line"/>
      <point x="-43" y="892" type="line"/>
      <point x="691" y="892" type="line"/>
    </contour>
    <contour>
      <point x="691" y="553" type="line"/>
      <point x="-43" y="553" type="line"/>
      <point x="-43" y="649" type="line"/>
      <point x="691" y="649" type="line"/>
    </contour>
  </outline>
</glyph>
<glyph name="lc_ascender_stem_2" format="1">
  <advance width="1078"/>
  <outline>
    <contour>
      <point x="128" y="0" type="line"/>
      <point x="128" y="1474" type="line"/>
      <point x="270" y="1474" type="line"/>
      <point x="270" y="758" type="line"/>
      <point x="238" y="0" type="line"/>
    </contour>
  </outline>
</glyph>
